#!OML:ASF H:\Dans Jumps\Project 1\Capture day 1\Session 1\subject.ASF
:FULLY-SPECIFIED
:DEGREES
599
root 0.404472 17.7066 10.9034 5.51424 -0.784875 -1.34053
lowerback -3.73926 0.207633 0.372965
upperback 2.71136 0.199466 1.23259
thorax 4.89688 0.0887929 1.0817
lowerneck -12.1201 0.589629 -1.03712
upperneck 28.6523 1.13572 -0.109319
head 11.2786 0.390558 0.288113
rclavicle -1.04362e-015 2.78299e-015
rhumerus -21.5209 -15.2985 -80.2397
rradius 26.9976
rwrist 32.7495
rhand -19.3233 -27.66
rfingers 7.12502
rthumb 6.99309 -57.5244
lclavicle -1.04362e-015 2.78299e-015
lhumerus -21.2985 -0.216558 89.6096
lradius 18.1897
lwrist 3.49907
lhand -23.6712 -6.86673
lfingers 7.12502
lthumb 2.7949 23.0947
rfemur -12.9857 -1.69788 20.0848
rtibia 20.7461
rfoot -13.0634 1.49261
rtoes 14.9578
lfemur -10.8149 6.72151 -17.4983
ltibia 17.968
lfoot -9.7937 4.80616
ltoes -8.67541
600
root 0.403012 17.7071 10.9033 5.54744 -0.731186 -1.3583
lowerback -3.72414 0.201535 0.39224
upperback 2.69628 0.189763 1.25012
thorax 4.87271 0.0843824 1.08806
lowerneck -12.1689 0.593857 -1.05207
upperneck 28.5777 1.13995 -0.0899077
head 11.2596 0.39376 0.298324
rclavicle 2.08724e-015 5.1684e-015
rhumerus -21.4243 -15.1076 -80.3226
rradius 27.2002
rwrist 32.5089
rhand -19.3683 -27.6804
rfingers 7.12502
rthumb 6.94964 -57.5464
lclavicle 2.08724e-015 5.1684e-015
lhumerus -21.1996 -0.655711 89.9098
lradius 18.3572
lwrist 3.8148
lhand -23.7148 -6.94148
lfingers 7.12502
lthumb 2.75277 23.0205
rfemur -13.0081 -1.69143 20.1141
rtibia 20.7287
rfoot -13.0527 1.42681
rtoes 14.9335
lfemur -10.8655 6.71893 -17.4739
ltibia 17.9746
lfoot -9.80427 4.75734
ltoes -8.65485
601
root 0.401644 17.7076 10.9027 5.57984 -0.673493 -1.37422
lowerback -3.70306 0.19452 0.409865
upperback 2.67938 0.17914 1.26558
thorax 4.84327 0.0795054 1.09309
lowerneck -12.2049 0.595968 -1.06638
upperneck 28.502 1.13961 -0.0664261
head 11.2375 0.395493 0.309231
rclavicle -2.33572e-015 -1.21259e-014
rhumerus -21.3377 -14.9393 -80.4046
rradius 27.3878
rwrist 32.2954
rhand -19.4256 -27.6797
rfingers 7.12502
rthumb 6.89435 -57.5474
lclavicle -2.33572e-015 -1.21259e-014
lhumerus -21.1111 -1.11816 90.2034
lradius 18.5293
lwrist 4.14616
lhand -23.7603 -7.02146
lfingers 7.12502
lthumb 2.70882 22.9411
rfemur -13.0314 -1.68331 20.1409
rtibia 20.712
rfoot -13.0438 1.35609
rtoes 14.9256
lfemur -10.9204 6.71282 -17.4519
ltibia 17.9867
lfoot -9.81481 4.70887
ltoes -8.62602
602
root 0.40032 17.708 10.9017 5.60939 -0.612059 -1.3863
lowerback -3.67755 0.185924 0.423195
upperback 2.66207 0.166821 1.27915
thorax 4.81089 0.0736791 1.09842
lowerneck -12.2267 0.593882 -1.08476
upperneck 28.4242 1.13226 -0.0369441
head 11.2118 0.394395 0.322018
rclavicle -2.78299e-015 -9.74045e-015
rhumerus -21.2592 -14.7898 -80.4864
rradius 27.5602
rwrist 32.1086
rhand -19.4768 -27.6821
rfingers 7.12502
rthumb 6.84494 -57.5515
lclavicle -2.78299e-015 -9.74045e-015
lhumerus -21.0367 -1.58524 90.4872
lradius 18.7226
lwrist 4.48586
lhand -23.7874 -7.04173
lfingers 7.12502
lthumb 2.68271 22.9211
rfemur -13.0539 -1.67371 20.1633
rtibia 20.6992
rfoot -13.0389 1.27919
rtoes 14.9121
lfemur -10.9746 6.70377 -17.4344
ltibia 17.9985
lfoot -9.82333 4.66074
ltoes -8.598
603
root 0.399125 17.7084 10.9005 5.63677 -0.546265 -1.39326
lowerback -3.64787 0.176969 0.431768
upperback 2.63999 0.15446 1.29212
thorax 4.77117 0.0676996 1.10574
lowerneck -12.2214 0.586565 -1.11816
upperneck 28.3447 1.11654 0.00690378
head 11.1799 0.389737 0.341376
rclavicle -5.66536e-015 -7.35503e-015
rhumerus -21.1982 -14.6613 -80.5589
rradius 27.7174
rwrist 31.9473
rhand -19.5328 -27.6658
rfingers 7.12502
rthumb 6.79082 -57.5369
lclavicle -5.66536e-015 -7.35503e-015
lhumerus -20.9873 -2.04352 90.7629
lradius 18.936
lwrist 4.81743
lhand -23.7971 -7.0427
lfingers 7.12502
lthumb 2.67331 22.9203
rfemur -13.0764 -1.67052 20.1798
rtibia 20.6913
rfoot -13.0369 1.20411
rtoes 14.9073
lfemur -11.026 6.69036 -17.4233
ltibia 18.0066
lfoot -9.82962 4.61292
ltoes -8.57341
604
root 0.398139 17.7087 10.8994 5.66053 -0.481014 -1.39114
lowerback -3.61889 0.166619 0.431402
upperback 2.6224 0.140829 1.30205
thorax 4.73654 0.0608323 1.1149
lowerneck -12.2198 0.57766 -1.14811
upperneck 28.2692 1.09943 0.0452148
head 11.1503 0.384086 0.357947
rclavicle 2.08724e-015 2.18663e-015
rhumerus -21.134 -14.5541 -80.6331
rradius 27.8567
rwrist 31.8101
rhand -19.576 -27.6623
rfingers 7.12502
rthumb 6.74918 -57.5347
lclavicle 2.08724e-015 2.18663e-015
lhumerus -20.9395 -2.48554 91.0231
lradius 19.156
lwrist 5.13337
lhand -23.7972 -7.04683
lfingers 7.12502
lthumb 2.67323 22.9162
rfemur -13.096 -1.67382 20.1853
rtibia 20.6869
rfoot -13.0364 1.13431
rtoes 14.8923
lfemur -11.0704 6.67366 -17.4231
ltibia 18.0105
lfoot -9.83366 4.56932
ltoes -8.56079
605
root 0.397327 17.709 10.8987 5.68178 -0.416095 -1.38861
lowerback -3.59329 0.155226 0.429863
upperback 2.60879 0.125754 1.31262
thorax 4.70801 0.053183 1.12531
lowerneck -12.2203 0.568846 -1.17554
upperneck 28.1987 1.08372 0.0773409
head 11.1232 0.378538 0.372029
rclavicle 1.49089e-016 -3.97569e-015
rhumerus -21.0661 -14.4665 -80.706
rradius 27.9746
rwrist 31.6958
rhand -19.6137 -27.6653
rfingers 7.12502
rthumb 6.71278 -57.5389
lclavicle 1.49089e-016 -3.97569e-015
lhumerus -20.8993 -2.91414 91.2703
lradius 19.3848
lwrist 5.43253
lhand -23.793 -7.05673
lfingers 7.12502
lthumb 2.67724 22.9062
rfemur -13.1126 -1.68148 20.1896
rtibia 20.6841
rfoot -13.0389 1.06926
rtoes 14.8788
lfemur -11.1089 6.65331 -17.4239
ltibia 18.011
lfoot -9.83722 4.52971
ltoes -8.55693
606
root 0.396683 17.7092 10.8985 5.69933 -0.354707 -1.38879
lowerback -3.57235 0.145384 0.431487
upperback 2.59642 0.11245 1.32432
thorax 4.68342 0.0464886 1.13531
lowerneck -12.2071 0.562814 -1.20457
upperneck 28.1294 1.07149 0.112015
head 11.0939 0.374727 0.38768
rclavicle 1.93815e-015 2.82274e-014
rhumerus -21.0031 -14.4017 -80.7733
rradius 28.0705
rwrist 31.6003
rhand -19.6405 -27.6732
rfingers 7.12502
rthumb 6.68692 -57.5476
lclavicle 1.93815e-015 2.82274e-014
lhumerus -20.8711 -3.33916 91.5079
lradius 19.6153
lwrist 5.72075
lhand -23.7876 -7.06187
lfingers 7.12502
lthumb 2.68251 22.901
rfemur -13.1238 -1.68984 20.1959
rtibia 20.6815
rfoot -13.0429 1.00914
rtoes 14.8646
lfemur -11.1393 6.63008 -17.4217
ltibia 18.0095
lfoot -9.84074 4.49618
ltoes -8.56046
607
root 0.396232 17.7094 10.8987 5.7138 -0.298136 -1.39186
lowerback -3.55838 0.134091 0.434669
upperback 2.59522 0.0968543 1.3366
thorax 4.67448 0.038654 1.14496
lowerneck -12.2294 0.562566 -1.2146
upperneck 28.0775 1.06932 0.126847
head 11.0785 0.374865 0.394396
rclavicle -2.33572e-015 -1.19271e-015
rhumerus -20.9214 -14.3543 -80.8471
rradius 28.142
rwrist 31.5218
rhand -19.6623 -27.6766
rfingers 7.12502
rthumb 6.66583 -57.5517
lclavicle -2.33572e-015 -1.19271e-015
lhumerus -20.8284 -3.76202 91.7296
lradius 19.8371
lwrist 6.00704
lhand -23.7793 -7.05121
lfingers 7.12502
lthumb 2.69048 22.9116
rfemur -13.1298 -1.69989 20.2044
rtibia 20.6775
rfoot -13.0488 0.955311
rtoes 14.8422
lfemur -11.1634 6.60539 -17.4163
ltibia 18.008
lfoot -9.8451 4.46806
ltoes -8.56994
608
root 0.395845 17.7096 10.8992 5.72781 -0.249265 -1.39866
lowerback -3.54866 0.12329 0.439295
upperback 2.59849 0.0816857 1.34964
thorax 4.67263 0.0310453 1.15469
lowerneck -12.2633 0.566852 -1.21118
upperneck 28.0331 1.07462 0.127654
head 11.0683 0.378022 0.39476
rclavicle 5.96354e-016 -5.76476e-015
rhumerus -20.8354 -14.3181 -80.924
rradius 28.1944
rwrist 31.4563
rhand -19.6663 -27.6861
rfingers 7.12502
rthumb 6.66196 -57.5613
lclavicle 5.96354e-016 -5.76476e-015
lhumerus -20.7813 -4.17034 91.9336
lradius 20.0475
lwrist 6.27661
lhand -23.7694 -7.04382
lfingers 7.12502
lthumb 2.70009 22.9188
rfemur -13.1356 -1.7013 20.2163
rtibia 20.6732
rfoot -13.0534 0.899591
rtoes 14.8037
lfemur -11.1846 6.58063 -17.4066
ltibia 18.0058
lfoot -9.84929 4.44556
ltoes -8.5718
609
root 0.395618 17.7097 10.8998 5.7417 -0.207489 -1.40493
lowerback -3.54266 0.112937 0.442211
upperback 2.60759 0.0671435 1.36123
thorax 4.67895 0.0236941 1.16398
lowerneck -12.318 0.572373 -1.19557
upperneck 27.9997 1.08253 0.116486
head 11.0668 0.38206 0.389174
rclavicle -1.93815e-015 -2.18663e-015
rhumerus -20.7455 -14.2888 -81.0064
rradius 28.2336
rwrist 31.3952
rhand -19.6697 -27.6734
rfingers 7.12502
rthumb 6.65866 -57.5487
lclavicle -1.93815e-015 -2.18663e-015
lhumerus -20.7269 -4.5712 92.1191
lradius 20.2476
lwrist 6.53713
lhand -23.751 -7.02098
lfingers 7.12502
lthumb 2.71787 22.9414
rfemur -13.1428 -1.7018 20.2269
rtibia 20.6701
rfoot -13.0564 0.849087
rtoes 14.7623
lfemur -11.2034 6.55423 -17.398
ltibia 18.003
lfoot -9.85275 4.43129
ltoes -8.5716
